<svg width="241" height="125" viewBox="0 0 241 125" fill="none" xmlns="http://www.w3.org/2000/svg">
<g style="mix-blend-mode:multiply" opacity="0.2">
<path d="M176.845 50.3534L157.289 43.7949L118.141 50.3534L79.0136 43.7949L59.4378 50.3534L0.734375 103.488L39.862 96.9013L118.141 104.812L196.401 96.9013L235.548 103.488L176.845 50.3534Z" fill="#DBDBDB"/>
</g>
<path d="M59.4378 44.3302L79.0136 37.7637L39.862 89.5536L0.734375 102.687L59.4378 44.3302Z" fill="#EFF7FD"/>
<path d="M79.011 37.7637L39.8594 89.5536L118.139 102.687V44.3302L79.011 37.7637Z" fill="#CFE6F9"/>
<path d="M157.288 37.7637L118.141 44.3302V102.687L196.4 89.5536L157.288 37.7637Z" fill="#EFF7FD"/>
<path d="M157.289 37.7637L176.845 44.3302L235.548 102.687L196.401 89.5536L157.289 37.7637Z" fill="#CFE6F9"/>
<g opacity="0.8">
<path opacity="0.6" d="M118.801 69.5717L141.209 53.2233L165.165 48.5039L185.096 54.8629L227.842 97.9361L197.072 87.8829L178.27 91.4135L171.018 79.2778L133.665 86.2991L132.293 80.1036L118.801 69.5717Z" fill="#9FD89A"/>
<path opacity="0.6" d="M85.281 40.9745L76.652 56.1261L89.2863 59.8362L82.9313 74.3056L53.5137 70.9107L24.3555 81.4147L59.8688 45.0835L77.9645 39.1514L85.281 40.9745Z" fill="#D6EED4"/>
<path d="M163.943 46.5703L140.342 51.5331L116.992 67.702L98.7451 76.2791L56.0111 68.1887L24.3355 80.2724L20.043 85.1714L52.3767 72.9958L99.4392 81.0464L119.294 71.6833L142.217 55.8336L167.067 50.7033L187.935 57.3296L183.826 52.8216L163.943 46.5703Z" fill="white"/>
<path d="M132.863 96.7699L131.064 82.3524L116.758 71.5492L119.526 67.875L135.392 79.8471L137.431 96.1835L132.863 96.7699Z" fill="white"/>
<path d="M84.8797 75.8894L79.0273 74.7006L86.1164 60.8136L72.4688 57.7099L84.8876 39.1514L88.7055 41.7006L79.9249 54.8535L93.4009 57.8854L84.8797 75.8894Z" fill="white"/>
<path d="M176.768 92.4579L170.377 82.9074L134.094 88.8675L133.32 84.3196L172.536 77.8848L180.562 89.9047L176.768 92.4579Z" fill="white"/>
</g>
<path d="M13.0256 95.0948L60.3394 45.6187L77.3541 39.9538L79.0136 37.7637L59.4378 44.3302L0.734375 102.687L39.862 89.5536L42.9538 85.4645L13.0256 95.0948Z" fill="white"/>
<path d="M118.139 99.3708L42.9511 85.4639L39.8594 89.553L118.139 102.686L118.298 102.662V99.3468L118.139 99.3708Z" fill="#F7F7F7"/>
<path d="M118.143 44.3302L79.015 37.7637L77.3555 39.9538L118.143 46.5722L118.302 46.5483V44.3022L118.143 44.3302Z" fill="#F7F7F7"/>
<path d="M157.297 37.7637H157.289L118.301 44.3022V46.5483L158.717 39.6467L157.297 37.7637Z" fill="white"/>
<path d="M194.178 86.5898L118.301 99.3478V102.663L196.397 89.5539L194.186 86.5938L194.178 86.5898Z" fill="white"/>
<path d="M235.548 102.687L176.845 44.3302L157.297 37.7637L158.717 39.6467L176.123 45.6427L226.169 96.8461L194.187 86.5935L196.397 89.5536H196.401L235.548 102.687Z" fill="#EDEDED"/>
<g style="mix-blend-mode:exclusion" opacity="0.3">
<ellipse cx="127.095" cy="48.233" rx="2.39144" ry="0.425428" fill="#494949"/>
</g>
<path d="M137.44 71.5909L143.863 78.0137L135.305 86.5724L128.882 80.1496L137.44 71.5909Z" fill="#156CB7"/>
<path d="M130.658 77.4172C130.095 76.8544 129.179 76.8544 128.613 77.4172L101.303 104.727C98.7025 107.328 98.7025 111.545 101.303 114.145C102.603 115.446 104.309 116.097 106.012 116.097C107.715 116.097 109.421 115.446 110.721 114.145L138.031 86.8353C138.594 86.2724 138.594 85.357 138.031 84.7906L130.654 77.4137L130.658 77.4172Z" fill="#1E88E5"/>
<path opacity="0.13" d="M165.855 87.1415C145.12 87.1415 128.311 70.3325 128.311 49.5976C128.311 28.8627 145.12 12.0537 165.855 12.0537C186.589 12.0537 203.398 28.8627 203.398 49.5976C203.398 70.3325 186.589 87.1415 165.855 87.1415Z" fill="#1E88E5"/>
<path opacity="0.42" d="M167.041 20.3212C167.155 18.8607 168.527 17.8277 169.959 18.127C181.881 20.6204 192.261 29.8318 195.937 41.4797C196.211 42.3524 196.435 43.3569 195.947 44.1298C195.253 45.227 193.5 45.0987 192.528 44.2403C191.555 43.3818 191.142 42.0745 190.686 40.8599C187.046 31.2246 179.17 24.1468 169.182 22.9321C167.882 22.7754 166.935 21.6284 167.038 20.3212H167.041Z" fill="white"/>
<path opacity="0.42" d="M192.716 52.0009C192.716 53.928 193.357 55.4882 194.747 55.4882C196.136 55.4882 197.258 53.928 197.258 52.0009C197.258 50.0738 196.132 48.5137 194.747 48.5137C193.361 48.5137 192.716 50.0738 192.716 52.0009Z" fill="white"/>
<path opacity="0.07" d="M128.315 49.5969C128.315 70.3316 145.124 87.1408 165.859 87.1408C182.796 87.1408 197.116 75.924 201.789 60.511C196.361 73.3344 183.662 82.3285 168.862 82.3285C149.124 82.3285 133.124 66.3278 133.124 46.5906C133.124 31.7903 142.121 19.0881 154.945 13.6631C139.532 18.3365 128.311 32.6559 128.311 49.5969H128.315Z" fill="black"/>
<path d="M165.856 89.2609C171.21 89.2609 176.403 88.2137 181.294 86.1441C186.017 84.1458 190.259 81.2855 193.9 77.6451C197.54 74.0047 200.401 69.7623 202.399 65.039C204.468 60.1483 205.516 54.9549 205.516 49.6012C205.516 44.2474 204.468 39.0539 202.399 34.1633C200.401 29.44 197.54 25.1976 193.9 21.5572C190.259 17.9168 186.017 15.0565 181.294 13.0582C176.403 10.9886 171.21 9.94141 165.856 9.94141C160.502 9.94141 155.309 10.9886 150.418 13.0582C145.695 15.0565 141.452 17.9168 137.812 21.5572C134.172 25.1976 131.311 29.44 129.313 34.1633C127.243 39.0539 126.196 44.2474 126.196 49.6012C126.196 54.9549 127.243 60.1483 129.313 65.039C131.311 69.7623 134.172 74.0047 137.812 77.6451C141.452 81.2855 145.695 84.1458 150.418 86.1441C155.309 88.2137 160.502 89.2609 165.856 89.2609ZM165.856 14.1731C170.64 14.1731 175.277 15.1099 179.645 16.9551C183.862 18.7396 187.652 21.2936 190.904 24.5458C194.156 27.7979 196.714 31.5879 198.495 35.8054C200.34 40.1724 201.277 44.8102 201.277 49.594C201.277 54.3778 200.34 59.0156 198.495 63.3827C196.71 67.6001 194.156 71.3901 190.904 74.6423C187.652 77.8944 183.862 80.452 179.645 82.233C175.277 84.0781 170.64 85.0149 165.856 85.0149C161.072 85.0149 156.434 84.0781 152.067 82.233C147.85 80.4484 144.06 77.8944 140.808 74.6423C137.555 71.3901 134.998 67.6001 133.217 63.3827C131.372 59.0156 130.435 54.3778 130.435 49.594C130.435 44.8102 131.372 40.1724 133.217 35.8054C135.002 31.5879 137.555 27.7979 140.808 24.5458C144.06 21.2936 147.85 18.7361 152.067 16.9551C156.434 15.1099 161.072 14.1731 165.856 14.1731Z" fill="#F47B6D"/>
<path d="M165.856 85.7411C170.736 85.7411 175.47 84.7865 179.926 82.8986C184.229 81.0784 188.094 78.471 191.414 75.1548C194.733 71.8349 197.337 67.9701 199.157 63.6672C201.042 59.2111 202 54.4771 202 49.5971C202 44.7171 201.045 39.9832 199.157 35.5271C197.337 31.2241 194.73 27.3593 191.414 24.0395C188.094 20.7197 184.229 18.1158 179.926 16.2956C175.47 14.4113 170.736 13.4531 165.856 13.4531C160.976 13.4531 156.242 14.4078 151.786 16.2956C147.483 18.1158 143.618 20.7232 140.298 24.0395C136.979 27.3593 134.375 31.2241 132.554 35.5271C130.67 39.9832 129.712 44.7171 129.712 49.5971C129.712 54.4771 130.667 59.2111 132.554 63.6672C134.375 67.9701 136.982 71.8349 140.298 75.1548C143.618 78.4746 147.483 81.0784 151.786 82.8986C156.242 84.783 160.976 85.7411 165.856 85.7411ZM165.856 15.0596C170.519 15.0596 175.042 15.9715 179.299 17.7739C183.413 19.5122 187.107 22.0056 190.277 25.1758C193.451 28.3496 195.941 32.0434 197.679 36.154C199.478 40.4106 200.394 44.9344 200.394 49.5971C200.394 54.2598 199.482 58.7836 197.679 63.0403C195.941 67.1544 193.448 70.8483 190.277 74.0185C187.107 77.1887 183.41 79.6821 179.299 81.4204C175.042 83.2192 170.519 84.1347 165.856 84.1347C161.193 84.1347 156.669 83.2228 152.413 81.4204C148.299 79.6821 144.605 77.1887 141.435 74.0185C138.264 70.8483 135.771 67.1509 134.033 63.0403C132.234 58.7836 131.318 54.2598 131.318 49.5971C131.318 44.9344 132.23 40.4106 134.033 36.154C135.771 32.0398 138.264 28.346 141.435 25.1758C144.608 22.002 148.302 19.5122 152.413 17.7739C156.669 15.9751 161.193 15.0596 165.856 15.0596Z" fill="#F7A299"/>
<path d="M98.7557 23.894C98.942 24.0125 99.1632 24.0817 99.3989 24.0817H107.633C107.912 24.0817 108.169 23.9858 108.373 23.8255C108.858 23.5248 109.18 22.9884 109.18 22.3767C109.18 21.4348 108.416 20.6716 107.475 20.6716C107.323 20.6716 107.175 20.6915 107.036 20.7292C107.036 20.71 107.036 20.6908 107.036 20.6716C107.036 19.4201 106.022 18.4062 104.771 18.4062C103.755 18.4062 102.895 19.0755 102.608 19.9969C102.297 19.6633 101.853 19.4537 101.36 19.4537C100.584 19.4537 99.9291 19.9729 99.7229 20.6826C99.6606 20.6758 99.5976 20.6716 99.5332 20.6716C98.5912 20.6716 97.8281 21.4354 97.8281 22.3767C97.8281 23.0384 98.2049 23.6118 98.7557 23.894Z" fill="#DFEEFB"/>
<path d="M24.8984 31.3765C25.0146 31.4503 25.1525 31.4935 25.2993 31.4935H30.4315C30.6053 31.4935 30.7654 31.4337 30.893 31.3338C31.1949 31.1463 31.3956 30.812 31.3956 30.4308C31.3956 29.8437 30.9195 29.368 30.3329 29.368C30.2381 29.368 30.1463 29.3804 30.0592 29.4039C30.0592 29.3919 30.0596 29.38 30.0596 29.368C30.0596 28.588 29.4273 27.9561 28.6476 27.9561C28.0144 27.9561 27.4782 28.3732 27.2993 28.9475C27.1054 28.7395 26.8287 28.6089 26.5217 28.6089C26.038 28.6089 25.6298 28.9325 25.5013 29.3749C25.4624 29.3706 25.4232 29.368 25.383 29.368C24.796 29.368 24.3203 29.8441 24.3203 30.4308C24.3203 30.8432 24.5551 31.2006 24.8984 31.3765Z" fill="#DFEEFB"/>
<path d="M119.611 7.72686C119.85 7.96805 120.18 8.11909 120.546 8.11909H130.375C130.779 8.11909 131.143 7.9341 131.384 7.64373C131.814 7.27726 132.088 6.73283 132.088 6.124C132.088 5.02225 131.194 4.12891 130.093 4.12891C130.021 4.12891 129.951 4.13242 129.882 4.13945C129.902 4.00012 129.912 3.85728 129.912 3.7121C129.912 2.01791 128.539 0.644531 126.845 0.644531C125.569 0.644531 124.475 1.42313 124.013 2.5319C123.625 2.23803 123.141 2.06474 122.618 2.06474C121.404 2.06474 120.409 3.00023 120.312 4.18862C119.445 4.4064 118.805 5.18968 118.805 6.124C118.805 6.78083 119.122 7.36391 119.611 7.72686Z" fill="#DFEEFB"/>
<g style="mix-blend-mode:exclusion" opacity="0.3">
<ellipse cx="103.505" cy="53.1209" rx="2.55194" ry="0.365042" fill="#494949"/>
</g>
<g style="mix-blend-mode:exclusion" opacity="0.3">
<ellipse cx="165.873" cy="74.8173" rx="6.2633" ry="1.11422" fill="#494949"/>
</g>
<path d="M184.042 48.2252C184.042 38.18 175.888 30.0377 165.839 30.0577C155.893 30.0776 147.707 38.2797 147.707 48.2252C147.707 52.0311 148.876 55.5577 150.875 58.4739C151.808 59.8382 158.418 67.9566 162.532 72.9912C164.243 75.0816 167.434 75.0896 169.15 73.0031C173.295 67.9646 179.965 59.8183 180.914 58.418C182.889 55.5138 184.042 52.0071 184.042 48.2252Z" fill="#F04935"/>
<g opacity="0.3">
<path d="M155.451 64.2934C155.47 52.2455 165.24 42.4875 177.288 42.4875C179.399 42.4875 181.437 42.7947 183.368 43.3532C181.234 35.6737 174.193 30.0407 165.831 30.0567C155.885 30.0766 147.699 38.2788 147.699 48.2242C147.699 52.0301 148.868 55.5567 150.867 58.4729C151.649 59.6139 156.4 65.4822 160.341 70.3173C158.738 68.3506 157.002 66.2123 155.451 64.2934Z" fill="white"/>
</g>
<path d="M165.871 39.501C170.69 39.501 174.596 43.4071 174.596 48.2256C174.596 53.0441 170.69 56.9501 165.871 56.9502C161.053 56.9502 157.147 53.0441 157.146 48.2256C157.146 43.407 161.053 39.501 165.871 39.501Z" fill="#E0293B" stroke="white" stroke-width="2.79255"/>
<path d="M165.87 40.835C169.945 40.835 173.267 44.1642 173.259 48.2395C173.252 52.2959 169.926 55.6175 165.87 55.6137C161.787 55.6099 158.477 52.2845 158.48 48.194C158.484 44.1528 161.821 40.8312 165.87 40.835ZM165.866 54.682C169.419 54.6858 172.32 51.7959 172.327 48.2433C172.339 44.6755 169.445 41.7743 165.874 41.7667C162.325 41.7591 159.416 44.6603 159.412 48.2054C159.408 51.777 162.298 54.6782 165.866 54.682Z" fill="white"/>
<path d="M165.795 48.6738C167.398 48.7041 168.598 49.3442 169.431 50.6433C169.507 50.7607 169.553 50.9236 169.553 51.0599C169.553 51.2607 169.382 51.4084 169.185 51.4425C168.981 51.4804 168.803 51.397 168.693 51.2077C168.367 50.6471 167.913 50.2191 167.329 49.9351C165.939 49.2647 164.004 49.5828 163.057 51.1887C162.909 51.4425 162.637 51.522 162.402 51.3857C162.178 51.2531 162.106 50.9766 162.25 50.7342C162.924 49.6131 163.902 48.9352 165.201 48.7306C165.417 48.6966 165.64 48.689 165.792 48.6738H165.795Z" fill="white"/>
<path d="M163.561 47.3015C163.05 47.3015 162.633 46.8849 162.637 46.3736C162.637 45.8699 163.05 45.457 163.557 45.457C164.072 45.457 164.489 45.8661 164.489 46.3774C164.489 46.8887 164.076 47.3015 163.561 47.3015Z" fill="white"/>
<path d="M168.167 47.3016C167.655 47.2941 167.246 46.8737 167.254 46.3623C167.262 45.851 167.682 45.4496 168.201 45.4571C168.701 45.4647 169.11 45.8851 169.106 46.3889C169.099 46.9002 168.682 47.3092 168.167 47.3016Z" fill="white"/>
<path d="M46.9736 12.9873H86.9531C89.1723 12.9873 90.9717 14.7867 90.9717 17.0059V17.0088C90.9717 19.2279 89.1723 21.0273 86.9531 21.0273H46.9736C44.7545 21.0273 42.9551 19.2279 42.9551 17.0088V17.0059C42.9551 14.7867 44.7545 12.9873 46.9736 12.9873Z" fill="white" stroke="#8FC4F2" stroke-width="0.418689"/>
<path d="M86.9492 21.2364H80.4464L80.4141 12.7783H86.9459C89.2827 12.7783 91.1734 14.6723 91.1734 17.0058C91.1734 19.3425 89.2794 21.2332 86.9459 21.2332L86.9492 21.2364Z" fill="#8FC4F2"/>
<path d="M85.3018 18.4884C84.2805 18.4884 83.4531 17.6578 83.4531 16.6397C83.4531 15.6216 84.2837 14.791 85.3018 14.791C86.3199 14.791 87.1505 15.6216 87.1505 16.6397C87.1505 17.1342 86.9566 17.5996 86.6076 17.9487C86.2585 18.2977 85.7931 18.4917 85.2986 18.4917L85.3018 18.4884ZM85.3018 15.2564C84.5391 15.2564 83.9185 15.877 83.9185 16.6397C83.9185 17.4025 84.5391 18.023 85.3018 18.023C85.6703 18.023 86.0193 17.8808 86.2779 17.619C86.5397 17.3572 86.6819 17.0114 86.6819 16.643C86.6819 15.8802 86.0613 15.2597 85.2986 15.2597L85.3018 15.2564Z" fill="white"/>
<path d="M87.9032 19.4884C87.8417 19.4884 87.7836 19.4658 87.7383 19.4205L86.271 17.9532C86.1805 17.8627 86.1805 17.714 86.271 17.6235C86.3615 17.533 86.5102 17.533 86.6007 17.6235L88.068 19.0909C88.1585 19.1814 88.1585 19.33 88.068 19.4205C88.0227 19.4658 87.9613 19.4884 87.9032 19.4884Z" fill="white"/>
<mask id="path-43-outside-1_2239_353951" maskUnits="userSpaceOnUse" x="86.5859" y="19.3154" width="9" height="10" fill="black">
<rect fill="white" x="86.5859" y="19.3154" width="9" height="10"/>
<path d="M87.8119 20.6927C87.8187 20.3796 88.1771 20.2085 88.4291 20.3889C88.5191 20.4525 92.8872 23.5299 94.2377 24.4817L94.6088 24.7405C94.6688 24.7816 94.7109 24.8332 94.7377 24.8899C94.8579 25.1327 94.6857 25.4711 94.3637 25.4475L94.3598 25.4505V25.4514L90.6947 25.2542C90.5592 25.2478 90.4334 25.3056 90.3558 25.4153L88.2933 28.4085C88.0767 28.7249 87.5702 28.5631 87.5863 28.1721L87.7865 21.4436C87.7872 21.4449 87.7878 21.4462 87.7885 21.4475C87.8052 20.8939 87.8155 20.5807 87.8119 20.6927Z"/>
</mask>
<path d="M87.8119 20.6927C87.8187 20.3796 88.1771 20.2085 88.4291 20.3889C88.5191 20.4525 92.8872 23.5299 94.2377 24.4817L94.6088 24.7405C94.6688 24.7816 94.7109 24.8332 94.7377 24.8899C94.8579 25.1327 94.6857 25.4711 94.3637 25.4475L94.3598 25.4505V25.4514L90.6947 25.2542C90.5592 25.2478 90.4334 25.3056 90.3558 25.4153L88.2933 28.4085C88.0767 28.7249 87.5702 28.5631 87.5863 28.1721L87.7865 21.4436C87.7872 21.4449 87.7878 21.4462 87.7885 21.4475C87.8052 20.8939 87.8155 20.5807 87.8119 20.6927Z" fill="#F5887C"/>
<path d="M87.8119 20.6927L87.2772 20.6811L88.3465 20.7099L87.8119 20.6927ZM88.4291 20.3889L88.1176 20.8238L88.1206 20.8259L88.4291 20.3889ZM94.2377 24.4817L93.9296 24.9189L93.9317 24.9204L94.2377 24.4817ZM94.6088 24.7405L94.3028 25.1792L94.3068 25.182L94.6088 24.7405ZM94.7377 24.8899L94.2539 25.1182L94.2584 25.1272L94.7377 24.8899ZM94.3637 25.4475L94.4027 24.9141L94.2029 24.8995L94.0427 25.0197L94.3637 25.4475ZM94.3598 25.4505L94.0388 25.0226L93.8249 25.183V25.4505H94.3598ZM94.3598 25.4514L94.331 25.9855L94.8946 26.0159V25.4514H94.3598ZM90.6947 25.2542L90.7235 24.7201L90.7197 24.7199L90.6947 25.2542ZM90.3558 25.4153L89.9191 25.1066L89.9154 25.1118L90.3558 25.4153ZM88.2933 28.4085L87.8529 28.105L87.852 28.1063L88.2933 28.4085ZM87.5863 28.1721L88.1207 28.1942L88.1209 28.1881L87.5863 28.1721ZM87.7865 21.4436L88.263 21.2007L87.2519 21.4277L87.7865 21.4436ZM87.7885 21.4475L87.3122 21.691L88.3231 21.4637L87.7885 21.4475ZM87.8119 20.6927L88.3466 20.7042C88.3453 20.7663 88.3039 20.8165 88.2626 20.8366C88.2233 20.8558 88.1646 20.8574 88.1176 20.8238L88.4291 20.3889L88.7405 19.9541C88.1525 19.533 87.2936 19.9214 87.2772 20.6811L87.8119 20.6927ZM88.4291 20.3889L88.1206 20.8259C88.2109 20.8896 92.5795 23.9674 93.9296 24.9189L94.2377 24.4817L94.5458 24.0445C93.1949 23.0925 88.8273 20.0154 88.7375 19.952L88.4291 20.3889ZM94.2377 24.4817L93.9317 24.9204L94.3028 25.1792L94.6088 24.7405L94.9147 24.3018L94.5436 24.043L94.2377 24.4817ZM94.6088 24.7405L94.3068 25.182C94.2984 25.1762 94.2883 25.1676 94.2783 25.1559C94.2684 25.1442 94.2602 25.1313 94.254 25.1182L94.7377 24.8899L95.2214 24.6617C95.1544 24.5197 95.0499 24.3942 94.9107 24.299L94.6088 24.7405ZM94.7377 24.8899L94.2584 25.1272C94.2295 25.069 94.2418 25.0198 94.2598 24.9902C94.2711 24.9716 94.2906 24.9502 94.3204 24.934C94.3524 24.9167 94.3834 24.9127 94.4027 24.9141L94.3637 25.4475L94.3247 25.981C94.7025 26.0086 95.0097 25.8152 95.1732 25.547C95.3278 25.2934 95.366 24.9536 95.217 24.6526L94.7377 24.8899ZM94.3637 25.4475L94.0427 25.0197L94.0388 25.0226L94.3598 25.4505L94.6807 25.8783L94.6846 25.8754L94.3637 25.4475ZM94.3598 25.4505H93.8249V25.4514H94.3598H94.8946V25.4505H94.3598ZM94.3598 25.4514L94.3885 24.9174L90.7235 24.7201L90.6947 25.2542L90.666 25.7883L94.331 25.9855L94.3598 25.4514ZM90.6947 25.2542L90.7197 24.7199C90.4134 24.7056 90.1085 24.8387 89.9191 25.1066L90.3558 25.4153L90.7926 25.724C90.7774 25.7456 90.7559 25.7636 90.7315 25.7751C90.7077 25.7863 90.6858 25.7892 90.6697 25.7884L90.6947 25.2542ZM90.3558 25.4153L89.9154 25.1118L87.8529 28.105L88.2933 28.4085L88.7338 28.7119L90.7963 25.7188L90.3558 25.4153ZM88.2933 28.4085L87.852 28.1063C87.868 28.083 87.8981 28.0589 87.9361 28.0476C87.9694 28.0376 87.9981 28.0404 88.0192 28.0474C88.0405 28.0544 88.0665 28.0695 88.0883 28.0989C88.1132 28.1322 88.1217 28.1694 88.1207 28.1942L87.5863 28.1721L87.0519 28.1501C87.0132 29.0877 88.2202 29.4621 88.7347 28.7106L88.2933 28.4085ZM87.5863 28.1721L88.1209 28.1881L88.3211 21.4595L87.7865 21.4436L87.2519 21.4277L87.0517 28.1562L87.5863 28.1721ZM87.7865 21.4436L87.31 21.6865C87.3086 21.6838 87.3075 21.6815 87.3081 21.6828C87.3082 21.683 87.3101 21.6868 87.3122 21.691L87.7885 21.4475L88.2647 21.204C88.2662 21.207 88.2674 21.2094 88.2669 21.2084C88.2669 21.2084 88.2651 21.2047 88.263 21.2007L87.7865 21.4436ZM87.7885 21.4475L88.3231 21.4637C88.3314 21.1871 88.3382 20.9707 88.3424 20.8374C88.3445 20.7708 88.346 20.725 88.3467 20.7029C88.3469 20.6974 88.347 20.6934 88.3471 20.691C88.3471 20.6904 88.3471 20.6899 88.3471 20.6896C88.3471 20.6894 88.3471 20.6893 88.3471 20.6892C88.3471 20.6891 88.3471 20.689 88.3471 20.689C88.3471 20.689 88.3471 20.6891 88.3471 20.6891C88.3471 20.6892 88.3471 20.6893 88.3471 20.6894C88.3471 20.6896 88.3471 20.6898 88.3471 20.6902C88.3471 20.6904 88.3471 20.6912 88.347 20.6922C88.347 20.6928 88.3469 20.6944 88.3469 20.6953C88.3468 20.6972 88.3464 20.7045 88.346 20.7098C88.327 20.8166 87.6901 21.1907 87.2779 20.68C87.2778 20.6729 87.2778 20.6635 87.2778 20.6613C87.2779 20.6586 87.2779 20.6564 87.2779 20.6564C87.278 20.6558 87.278 20.6554 87.278 20.6552C87.278 20.6548 87.2778 20.6605 87.2773 20.6754L87.8119 20.6927L88.3465 20.7099C88.3469 20.6968 88.3472 20.6878 88.3473 20.6853C88.3473 20.685 88.3473 20.6845 88.3473 20.6839C88.3473 20.6838 88.3474 20.6816 88.3474 20.6789C88.3474 20.6767 88.3475 20.6674 88.3474 20.6602C87.9351 20.1495 87.2982 20.5236 87.2792 20.6304C87.2789 20.6358 87.2785 20.643 87.2784 20.6449C87.2783 20.6459 87.2782 20.6474 87.2782 20.648C87.2782 20.6497 87.2781 20.6511 87.2781 20.6512C87.2781 20.6516 87.2781 20.6519 87.2781 20.6522C87.278 20.6531 87.278 20.6543 87.278 20.6556C87.2779 20.6583 87.2777 20.6626 87.2775 20.6682C87.2768 20.6906 87.2753 20.7367 87.2732 20.8036C87.269 20.9373 87.2622 21.1543 87.2539 21.4314L87.7885 21.4475Z" fill="white" mask="url(#path-43-outside-1_2239_353951)"/>
<path d="M94.3606 25.4495L90.6955 25.2524C90.5597 25.2459 90.4337 25.3041 90.3561 25.414L88.2941 28.4068C88.0776 28.7235 87.5702 28.5619 87.5863 28.1709C87.5895 28.061 87.8287 20.1911 87.8126 20.692C87.819 20.3785 88.1778 20.2072 88.4299 20.3882C88.5398 20.4658 95.0264 25.0358 94.6127 24.745C94.9294 24.9615 94.7581 25.4754 94.3638 25.4463L94.3606 25.4495Z" fill="#F7A299"/>
<path d="M94.3606 25.4501L90.6955 25.2529C90.5597 25.2464 90.4337 25.3046 90.3561 25.4145L88.2941 28.4073C88.0776 28.7241 87.5702 28.5625 87.5863 28.1714L87.7867 21.4424C88.6399 23.1166 91.0058 24.5031 93.6463 24.3189C93.7465 24.3059 93.8531 24.3027 93.9501 24.2801L94.6094 24.739C94.9262 24.9556 94.7549 25.4694 94.3606 25.4404V25.4501Z" fill="#F5887C"/>
<g style="mix-blend-mode:exclusion" opacity="0.3">
<ellipse cx="71.6554" cy="47.7715" rx="4.10069" ry="0.729497" fill="#494949"/>
</g>
<path d="M79.2909 35.9355C79.2909 31.5224 75.7087 27.9458 71.2928 27.9541C66.9242 27.9625 63.3281 31.5641 63.3281 35.9355C63.3281 37.6057 63.8422 39.1564 64.7204 40.4375C65.1317 41.0378 68.033 44.6033 69.8422 46.8154C70.5925 47.7353 71.9959 47.7353 72.7491 46.821C74.5693 44.6061 77.4984 41.0295 77.9181 40.4153C78.7851 39.1397 79.2937 37.5974 79.2937 35.9383L79.2909 35.9355Z" fill="#F04935"/>
<g opacity="0.3">
<path d="M66.7324 42.9943C66.7408 37.703 71.0316 33.4149 76.3257 33.4149C77.2539 33.4149 78.1487 33.5483 78.9963 33.7956C78.0598 30.4219 74.964 27.9486 71.2928 27.9541C66.9242 27.9624 63.3281 31.5641 63.3281 35.9355C63.3281 37.6057 63.8422 39.1564 64.7204 40.4375C65.065 40.9378 67.1521 43.5167 68.8834 45.6399C68.1803 44.7756 67.4161 43.8363 66.7352 42.9943H66.7324Z" fill="white"/>
</g>
<path d="M71.3097 40.3841C73.7655 40.3841 75.7562 38.3934 75.7562 35.9377C75.7562 33.482 73.7655 31.4912 71.3097 31.4912C68.854 31.4912 66.8633 33.482 66.8633 35.9377C66.8633 38.3934 68.854 40.3841 71.3097 40.3841Z" fill="white"/>
<path d="M69.2837 37.9618C69.0109 37.689 68.798 37.3696 68.6549 37.0136C68.5152 36.671 68.4453 36.3083 68.4453 35.9357C68.4453 35.5631 68.5152 35.2005 68.6549 34.8578C68.798 34.5018 69.0109 34.1825 69.2837 33.9097C69.5565 33.6369 69.8759 33.4239 70.2318 33.2809C70.5745 33.1412 70.9371 33.0713 71.3097 33.0713C71.6823 33.0713 72.045 33.1412 72.3876 33.2809C72.7436 33.4239 73.063 33.6369 73.3358 33.9097C73.6086 34.1825 73.8215 34.5018 73.9646 34.8578C74.1043 35.2005 74.1742 35.5631 74.1742 35.9357C74.1742 36.3083 74.1043 36.671 73.9646 37.0136C73.8215 37.3696 73.6086 37.689 73.3358 37.9618C73.063 38.2346 72.7436 38.4475 72.3876 38.5905C72.045 38.7303 71.6823 38.8001 71.3097 38.8001C70.9371 38.8001 70.5745 38.7303 70.2318 38.5905C69.8759 38.4475 69.5565 38.2346 69.2837 37.9618ZM72.9133 34.3288C72.697 34.1126 72.4442 33.9429 72.1614 33.8298C71.8886 33.72 71.6025 33.6635 71.3064 33.6635C71.0103 33.6635 70.7242 33.72 70.4514 33.8298C70.1686 33.9429 69.9158 34.1126 69.6995 34.3288C69.4833 34.5451 69.3136 34.7979 69.2005 35.0807C69.0907 35.3535 69.0342 35.6396 69.0342 35.9357C69.0342 36.2318 69.0907 36.5179 69.2005 36.7907C69.3136 37.0735 69.4833 37.3263 69.6995 37.5426C69.9158 37.7588 70.1686 37.9285 70.4514 38.0416C70.7242 38.1514 71.0103 38.208 71.3064 38.208C71.6025 38.208 71.8886 38.1514 72.1614 38.0416C72.4442 37.9285 72.697 37.7588 72.9133 37.5426C73.1295 37.3263 73.2992 37.0735 73.4123 36.7907C73.5221 36.5179 73.5787 36.2318 73.5787 35.9357C73.5787 35.6396 73.5221 35.3535 73.4123 35.0807C73.2992 34.7979 73.1295 34.5451 72.9133 34.3288Z" fill="#4EC67F"/>
<path d="M72.2239 34.9814L71.0196 36.1824L70.3509 35.5137L69.8984 35.9662L71.0196 37.0907L72.6764 35.4339L72.2239 34.9814Z" fill="#4EC67F"/>
</svg>
